<?xml version="1.0" encoding="UTF-8"?>
<svg id="a" data-name="Layer 1" xmlns="http://www.w3.org/2000/svg" viewBox="0 0 576.15 241.32">
  <defs>
    <style>
      .b {
        fill: #f49e23;
      }

      .b, .c, .d, .e {
        stroke-width: 0px;
      }

      .c {
        fill: #4ea761;
      }

      .d {
        fill: #31aec9;
      }

      .e {
        fill: #e9686a;
      }
    </style>
  </defs>
  <g>
    <path class="c" d="m77.91,87.07v-9.25c0-22.19,0-44.39,0-66.58,0-2.14-.09-4.29.17-6.41.37-3.11,2.71-4.87,7.3-4.8,1.87.03,3.74-.03,5.61-.02,10.76.06,11.4.4,11.42,8.19.08,25.94.09,51.87,0,77.81-.03,8.31-9.7,15.92-21.65,16.17-19.43.4-38.89.38-58.33.03-12.59-.23-22.28-7.73-22.33-16.69C-.04,59.84-.05,34.17.2,8.5.22,5.84,1.64,1.27,3.64.89,9.17-.15,15.37.33,21.23.74c1.21.09,2.62,2.44,3.01,3.88.56,2.07.34,4.26.34,6.39.02,22.19.01,44.39.01,66.58,0,2.88,0,5.75,0,9.32,18.18,1.28,35.09,1.02,53.3.15Z"/>
    <path class="c" d="m159.86,29.98c6.82-4.66,15.37-4.74,24.08-4.49,4.48.13,8.98,0,13.47.03,16.47.12,25.69,6.6,25.72,18.13.04,13.91.08,27.82-.02,41.73-.06,8.42-9.39,16.12-21.11,16.75-9.29.5-18.74.49-28.01-.11-4.89-.32-9.56-2.4-15.77-4.07,0,7.48.08,14.56-.04,21.64-.05,2.81,1.2,6.37-4.2,7.42-6.17,1.2-12.82,1.89-18.27-1.05-1.76-.95-1.93-3.87-1.97-5.9-.19-9.63-.09-19.26-.09-28.89,0-18.72-.09-37.45.09-56.17.03-3.23-2.07-7.3,4.1-9.11,6.65-1.94,17.62.1,22.04,4.1Zm37.85,10.36c-14.56-.46-27.7-2.08-39.16,4.78v37.41c13.94,5.71,24.62,6.72,39.16,3.66v-45.85Z"/>
  </g>
  <g>
    <path class="d" d="m474.86,35.53c7.11-6.69,16.57-4.65,25.26-5.41,10.08-.88,15.73,3.25,20.76,7.96,1.05-.16,1.58-.13,1.75-.29,7.41-6.85,17.39-8.11,28.85-7.65,13.82.56,23.78,6.94,24.13,16.92.31,8.82.08,17.65.08,26.48,0,12.57.06,25.14-.02,37.71-.05,8.86-.96,9.42-13.63,9.13-1.46-.03-2.91-.27-5.84-.55-.53-3.21-1.52-6.51-1.55-9.81-.16-17.65-.05-35.3-.1-52.95,0-2.89-.33-5.79-.56-9.47-5.48-.17-10.28-.79-14.9-.37-9.86.89-14.7,5.18-14.71,12.3-.04,17.92.07,35.84-.07,53.76-.05,6.37-1.17,7-9.52,7.13-9.83.15-10.98-.49-11.03-7.64-.13-18.45-.04-36.91-.06-55.36,0-2.14.48-4.4-.35-6.37-.63-1.48-2.89-3.54-4.64-3.66-4.73-.32-9.87-.39-14.32.63-9.64,2.21-11.24,4.32-11.26,11.81-.03,17.38.05,34.77-.04,52.15-.04,7.98-.99,8.6-11.05,8.44-8.35-.13-9.5-.77-9.53-7.13-.12-25.14-.08-50.28-.01-75.42,0-2.82-.94-6.09,4.5-7.32,6.56-1.48,13.45.12,17.87,5Z"/>
    <path class="d" d="m306.72,34.82c-.77-5.87-1.46-11.09-2.23-16.93h-43.31c-2.73,7.54-.68,15.24-1.36,23.3,12.38,5.03,24.68,10.04,37.01,15.02,7.16,2.89,14.28,5.83,21.55,8.57,5.48,2.07,8.29,4.89,8.13,9.56-.34,9.62.09,19.26-.16,28.89-.27,10.51-10.01,17.15-24.71,17.17-13.09.02-26.19.03-39.28,0-11.64-.03-22.14-6.74-22.97-15.02-.48-4.79-.39-9.64-.02-14.44.37-4.94,2.26-5.8,10.54-5.75,8.06.05,9.37.82,9.9,6.18.36,3.66.54,7.32.84,11.52h44.65c0-7.57.44-14.72-.32-21.82-.18-1.7-4.02-3.57-6.73-4.69-16.19-6.67-32.35-13.4-48.92-19.56-7.71-2.87-10.73-6.53-10.26-12.7.64-8.54.07-17.12.19-25.67C239.41,6.85,248.82.06,264.59.04c12.72-.01,25.44-.03,38.16,0,12.31.03,22.73,6.84,23.54,15.62.39,4.26.29,8.56.05,12.84-.33,5.96-1.55,6.71-10.2,6.77-2.58.02-5.17-.24-9.41-.45Z"/>
    <path class="d" d="m371.3,103.27c7.68,0,14,.48,20.12-.11,9.72-.93,13.74-4.76,13.76-11.96.04-16.58,0-33.16.02-49.74.01-11.85,1.33-12.58,19.57-10.09.33,2.29,1.02,4.85,1.02,7.41.08,24.33.1,48.67-.02,73-.01,3.01,1.56,6.73-4.06,8.35-5.9,1.7-14.07-.24-18.21-4.25-11.39,7.58-25.48,4.83-38.26,3.88-7.51-.56-11.92-6.77-14.32-12.3-.76-1.74-.76-3.7-.77-5.56-.05-20.86-.07-41.72.01-62.57.01-2.61.7-5.22,1.01-7.38,1.53-.68,2.12-1.14,2.79-1.21,16.21-1.49,17.32-.8,17.33,10.86.02,17.38,0,34.76,0,52.15v9.51Z"/>
  </g>
  <g>
    <path class="b" d="m428.41,134.55c4.37-8.09,12.37-6.77,19.75-7.07,9.87-.4,9.84,6.27,14.56,10.1,1.82-1.91,3.76-3.54,5.08-5.4,2.28-3.22,5.65-4.53,10.71-4.71,13.68-.47,20.52,3.8,23.13,15.09.48,2.09.45,4.26.45,6.4.03,27,.05,54-.03,81,0,2.84-.62,5.68-.98,8.85h-13.12c-.49-3.66-1.31-7-1.33-10.35-.11-23.26-.06-46.52-.06-69.77v-8.44c-14.86-2.75-21.64.87-21.7,11.03-.11,21.92,0,43.84-.08,65.76-.02,3.68-.61,7.36-1,11.68-4.36.19-7.91.35-12.8.57-.54-3.8-1.4-7.11-1.42-10.43-.12-23.26-.03-46.52-.1-69.77,0-3.12-.5-6.24-.76-9.16-15.31-2.18-21.21,1.21-21.23,11.61-.05,22.46.03,44.91-.07,67.37-.01,3.12-.74,6.24-1.11,9.15-13.16,1.97-14.31,1.47-14.33-6.91-.09-31.81-.07-63.63.02-95.44,0-3.03-1.33-6.84,4.9-7.88,6.01-1,10.43.29,11.52,6.71Z"/>
    <path class="b" d="m575.72,193.28c-13.34.27-25.83.52-38.84.78v24.38c9.29,0,17.75-.06,26.22.02,9.57.09,10.35.54,10.52,7.26.43,16.82-.52,13.2-18.49,13.5-5.23.09-10.5-.26-15.7.08-6.48.42-10.3-1.23-13.13-5.54-3.57-5.44-5.83-10.89-5.79-16.93.12-22.19,0-44.39.11-66.58.02-3.18.38-6.46,1.48-9.52,4.23-11.77,7.02-13.21,23.91-13.21,1.87,0,3.74,0,5.61,0,15.54,0,22.59,3.04,23.68,14.3,1.62,16.7.42,33.54.42,51.47Zm-38.43-44.07c-2.27,8.13-1.08,15.89-1.04,23.64h24.46c-.25-8.22.81-15.83-.74-23.64h-22.68Z"/>
    <path class="b" d="m337.81,183.62c0-11.23-.01-22.47.01-33.7,0-2.14-.09-4.3.29-6.41,2.15-11.88,8.72-15.98,25.37-15.99,1.12,0,2.24,0,3.37,0,17.78,0,22.67,2.83,26.09,15.42.64,2.34.66,4.79.67,7.18.05,22.2.08,44.4-.04,66.61-.02,3.17-.32,6.46-1.48,9.5-4.5,11.84-6.86,13.01-23.87,13.01-1.5,0-3.01.11-4.49-.02-5.74-.5-14.04.39-16.65-1.94-4.83-4.31-8.14-10.41-8.82-15.97-1.34-10.88-.44-21.91-.46-32.88,0-1.6,0-3.21,0-4.81Zm16.33-34.8v69.06h22.15c2.57-7.6,2.43-61.82-.11-68.36-1.58-.21-3.35-.63-5.14-.66-5.18-.09-10.37-.03-16.9-.03Z"/>
    <path class="b" d="m303.81,149.41h-24.28c0,5.32-.44,10.09.23,14.78.24,1.72,2.66,3.67,4.82,4.78,8.8,4.52,17.72,8.93,26.92,13.01,6.08,2.7,8.63,6.13,8.37,11.24-.4,8.01-.54,16.05.03,24.05.48,6.78-3,12.5-7.03,18.27-1.9,2.73-4.68,3.81-8.94,3.73-7.84-.16-15.71-.27-23.54.04-5.45.21-7.73-1.77-10.28-4.8-6.82-8.07-6.51-16.82-5.94-25.65.24-3.64,3.28-5.01,8.27-4.87,4.73.13,6.67,1.88,6.91,5,.2,2.64.4,5.29.65,8.68h22.64c3.36-4.75,1.55-10.15,1.22-15.33-.1-1.58-3.3-3.35-5.59-4.52-8.83-4.48-17.74-8.91-26.89-13.05-5.34-2.41-7.54-5.51-7.43-9.96.24-9.35-.84-18.77.43-28.04.77-5.62,4.45-11.16,7.85-16.39,1.01-1.55,5.45-2.59,8.44-2.74,7.44-.38,14.94-.04,22.41-.16,5.15-.08,7.84,1.75,10.45,4.83,6.85,8.06,6.61,16.79,6.1,25.63-.21,3.65-3.11,5.24-8.03,5.14-4.39-.09-6.98-1.58-7.18-4.88-.16-2.64-.37-5.28-.63-8.82Z"/>
  </g>
  <g>
    <path class="e" d="m144.55,220.95c1.59-10.01,3.19-20.01,4.76-30.02,2.12-13.55,4.19-27.11,6.32-40.66.25-1.59.04-3.55,1.27-4.63,1.38-1.22,4.13-2.21,6.31-2.24,1.43-.02,3.68,1.69,4.18,2.91.7,1.71.29,3.71.06,5.57-.81,6.39-1.24,12.84-2.74,19.15-3.76,15.92,2.28,31.38,3.68,47.05.09.97.93,1.91,3.28,2.87,1.53-9.32,3.11-18.63,4.57-27.96,2.29-14.62,4.48-29.24,6.77-43.85.2-1.31.21-3.06,1.34-3.77,1.74-1.09,4.41-2.02,6.6-1.93,1.4.06,3.09,1.95,3.81,3.26.63,1.15.21,2.64.01,3.96-4.05,27.66-8.07,55.32-12.27,82.97-.93,6.15-2.31,6.74-11.8,6.79-10.47.05-10.97-.23-12.39-7.06-.22-1.04-.41-2.08-.85-4.36-1.82,4.31-3.14,7.47-4.54,10.79-3.05.24-5.6.57-8.15.61-12.16.2-12.41.05-13.77-8.56-4.21-26.84-8.38-53.68-12.56-80.52-.04-.27-.09-.53-.11-.8-.55-5.38.75-7.27,5.35-7.32,6.47-.08,6.69,3.61,7.17,6.72,3.24,21,6.29,42.01,9.47,63.01.41,2.74,1.18,5.45,1.78,8.17.82-.05,1.64-.1,2.46-.15Z"/>
    <path class="e" d="m1.75,240.04V111.53c4.95-.21,9.61-.48,14.28-.59,4.11-.1,8.23-.02,12.35-.02,15.24,0,17.72,1.34,21.12,11.97.74,2.31.76,4.78.77,7.17.05,30.5.24,61.01-.19,91.51-.07,4.89-2.66,9.86-4.9,14.59-.79,1.68-3.93,3.87-6.13,3.96-12.19.45-24.44.65-37.29-.07Zm11.78-110.17v91.32h24.83v-46.13c0-7.47.32-14.96-.09-22.42-.42-7.56,1.93-15.3-1.66-22.77H13.53Z"/>
    <path class="e" d="m108.12,191.73c0,8.81,0,17.62,0,26.44,0,1.87.08,3.75-.11,5.61-1.51,14.29-13.06,20.26-32.18,16.4-2.14-.43-4.72-2.04-5.4-3.51-2.31-5-5.28-10.16-5.44-15.3-.62-19.75-.25-39.52-.25-59.28,0-.8,0-1.6.09-2.4,1.57-14.33,12.67-20.06,32.17-16.37,2.13.4,4.75,2.03,5.39,3.48,2.31,5.28,4.98,10.67,5.48,16.11.87,9.57.24,19.22.25,28.83Zm-30.27-29.61v59.13h17.13v-59.13h-17.13Z"/>
    <path class="e" d="m217.49,146.46c4.07-1.14,7.92-2.94,11.96-3.22,10.74-.74,11.89-.15,15.67,7.14,1.65,3.19,2.89,6.71,2.93,10.08.25,24.08.14,48.16.14,72.24,0,1.07-.05,2.14-.11,3.21-.14,2.9-2.15,4.49-6.3,4.35-3.73-.13-5.07-1.92-5.19-4.32-.11-2.14-.14-4.28-.15-6.42-.01-19.26,0-38.53,0-57.79,0-2.9,0-5.79,0-8.42-13.07-2.86-19.17,0-19.26,8.66-.19,19.26-.05,38.53-.08,57.79,0,2.4.4,4.94-.53,7.17-.57,1.37-3.32,3.1-5.14,3.13-1.88.04-4.47-1.53-5.56-2.88-1-1.24-.49-3.13-.49-4.73-.02-27.02-.02-54.05-.01-81.07,0-.8-.01-1.61.04-2.41.15-2.41-.01-4.96,4.37-5.71,4.63-.79,6.83,1.09,7.73,3.19Z"/>
  </g>
</svg>