<?xml version="1.0" encoding="UTF-8"?>
<svg id="a" data-name="Layer 4" xmlns="http://www.w3.org/2000/svg" viewBox="0 0 43.25 43.37">
  <defs>
    <style>
      .b {
        fill: #f49e23;
      }

      .b, .c {
        stroke-width: 0px;
      }

      .c {
        fill: #fff;
      }
    </style>
  </defs>
  <path class="b" d="m21.69,0c12.07.03,21.6,9.72,21.55,21.89-.05,11.84-9.83,21.41-21.82,21.36C9.62,43.2-.03,33.46,0,21.63.04,9.57,9.66-.03,21.69,0Zm19.5,21.72c0-10.89-8.66-19.64-19.46-19.66-10.8-.02-19.66,8.67-19.67,19.3,0,11.05,8.68,19.85,19.6,19.85,10.68,0,19.53-8.83,19.52-19.49Z"/>
  <path class="c" d="m41.19,21.72c0,10.66-8.84,19.49-19.52,19.49-10.92,0-19.61-8.8-19.6-19.85,0-10.63,8.86-19.32,19.67-19.3,10.8.02,19.46,8.77,19.46,19.66Zm-21.59.07c0-2.4.02-4.79,0-7.19-.02-1.62-.86-2.36-2.57-2.38-1.84-.02-2.79.68-2.81,2.31-.05,4.74-.06,9.49,0,14.23.02,1.65.98,2.26,3.02,2.19,1.62-.06,2.35-.78,2.36-2.4.02-2.25,0-4.5,0-6.76Zm4.04-.29c0,2.3,0,4.6,0,6.9,0,1.75.73,2.52,2.36,2.56,2.15.05,3.03-.61,3.04-2.49.03-4.6.03-9.2,0-13.8-.01-1.7-.91-2.47-2.67-2.45-1.9.02-2.72.75-2.73,2.53-.02,2.25,0,4.5,0,6.76Z"/>
  <path class="b" d="m19.6,21.79c0,2.25.01,4.5,0,6.76-.01,1.62-.74,2.34-2.36,2.4-2.03.07-2.99-.53-3.02-2.19-.06-4.74-.06-9.49,0-14.23.02-1.63.98-2.33,2.81-2.31,1.71.02,2.55.77,2.57,2.38.03,2.4,0,4.79,0,7.19Z"/>
  <path class="b" d="m23.64,21.51c0-2.25-.02-4.51,0-6.76.01-1.77.83-2.51,2.73-2.53,1.76-.02,2.66.75,2.67,2.45.04,4.6.04,9.2,0,13.8-.01,1.87-.89,2.54-3.04,2.49-1.64-.04-2.36-.81-2.36-2.56,0-2.3,0-4.6,0-6.9Z"/>
</svg>