<?xml version="1.0" encoding="UTF-8"?>
<svg id="a" data-name="Layer 5" xmlns="http://www.w3.org/2000/svg" viewBox="0 0 43.25 43.37">
  <defs>
    <style>
      .b {
        fill: #f49e23;
      }

      .b, .c {
        stroke-width: 0px;
      }

      .c {
        fill: #fff;
      }
    </style>
  </defs>
  <path class="b" d="m43.25,21.82c0,11.92-9.67,21.55-21.61,21.55C9.72,43.37.06,33.71.03,21.81,0,9.16,10.61-.09,21.94.1c11.76.2,21.32,9.77,21.31,21.72Zm-23.63-.11c0-2.25.01-4.5,0-6.76-.01-1.83-.79-2.59-2.64-2.6-1.86-.01-2.74.75-2.75,2.53-.03,4.6-.03,9.2,0,13.8.01,1.76.87,2.43,2.82,2.41,1.83-.02,2.57-.71,2.58-2.48.02-2.3,0-4.6,0-6.9Zm4.04-.04c0,2.3-.01,4.6,0,6.9.01,1.78.75,2.49,2.55,2.51,2.03.03,2.85-.66,2.86-2.52.02-4.55.03-9.11,0-13.66-.01-1.79-.88-2.56-2.72-2.56-1.86,0-2.67.76-2.69,2.56-.02,2.25,0,4.51,0,6.76Z"/>
  <path class="c" d="m19.63,21.71c0,2.3.01,4.6,0,6.9-.01,1.76-.75,2.45-2.58,2.48-1.95.02-2.8-.65-2.82-2.41-.04-4.6-.03-9.2,0-13.8.01-1.78.9-2.54,2.75-2.53,1.85.01,2.63.77,2.64,2.6.01,2.25,0,4.5,0,6.76Z"/>
  <path class="c" d="m23.67,21.67c0-2.25-.01-4.51,0-6.76.01-1.8.83-2.56,2.69-2.56,1.84,0,2.71.77,2.72,2.56.03,4.55.03,9.11,0,13.66-.01,1.86-.83,2.54-2.86,2.52-1.8-.02-2.53-.73-2.55-2.51-.02-2.3,0-4.6,0-6.9Z"/>
</svg>