<?xml version="1.0" encoding="UTF-8"?>
<svg id="a" data-name="Layer 3" xmlns="http://www.w3.org/2000/svg" viewBox="0 0 43.25 43.37">
  <defs>
    <style>
      .b {
        fill: #f49e23;
      }

      .b, .c {
        stroke-width: 0px;
      }

      .c {
        fill: #fff;
      }
    </style>
  </defs>
  <path class="b" d="m0,21.66C0,9.69,9.61.02,21.51.01c12.02,0,21.74,9.64,21.75,21.59,0,11.95-9.71,21.66-21.69,21.67C9.67,43.28,0,33.59,0,21.66Zm15.32-.14c0,2.78-.02,5.56,0,8.34.02,2.02,1.49,2.86,3.18,1.79,4.28-2.72,8.55-5.47,12.8-8.24,1.6-1.04,1.62-2.51.05-3.53-4.25-2.77-8.52-5.52-12.8-8.25-1.79-1.14-3.21-.31-3.23,1.83-.02,2.69,0,5.37,0,8.06Z"/>
  <path class="c" d="m15.32,21.52c0-2.69-.01-5.37,0-8.06.02-2.14,1.44-2.96,3.23-1.83,4.28,2.72,8.55,5.48,12.8,8.25,1.57,1.02,1.55,2.49-.05,3.53-4.25,2.77-8.52,5.52-12.8,8.24-1.69,1.07-3.16.22-3.18-1.79-.02-2.78,0-5.56,0-8.34Z"/>
</svg>