<?xml version="1.0" encoding="UTF-8"?>
<svg id="a" data-name="Layer 2" xmlns="http://www.w3.org/2000/svg" viewBox="0 0 43.25 43.37">
  <defs>
    <style>
      .b {
        fill: #f49e23;
      }

      .b, .c {
        stroke-width: 0px;
      }

      .c {
        fill: #fff;
      }
    </style>
  </defs>
  <path class="b" d="m21.65.02c11.96.03,21.62,9.68,21.6,21.57-.02,12.07-9.71,21.7-21.82,21.66C9.42,43.21,0,33.51.04,21.23.08,9.53,9.8,0,21.65.02ZM2.07,21.66c-.02,10.74,8.7,19.5,19.43,19.55,10.92.05,19.7-8.76,19.7-19.75,0-10.56-8.85-19.38-19.47-19.4-10.93-.02-19.64,8.67-19.66,19.6Z"/>
  <path class="c" d="m2.07,21.66c.02-10.93,8.73-19.62,19.66-19.6,10.62.02,19.47,8.84,19.47,19.4,0,10.99-8.78,19.8-19.7,19.75-10.73-.05-19.44-8.81-19.43-19.55Zm13.26-.16s0,0,0,0c0,2.78-.07,5.56.05,8.34.03.71.45,1.71.99,1.99.56.29,1.63.11,2.23-.27,4.27-2.65,8.48-5.4,12.7-8.14,1.65-1.07,1.64-2.55,0-3.62-4.22-2.73-8.45-5.45-12.69-8.14-1.79-1.14-3.22-.34-3.24,1.79-.02,2.68,0,5.37,0,8.05Z"/>
  <path class="b" d="m15.33,21.5c0-2.68-.02-5.37,0-8.05.02-2.12,1.45-2.92,3.24-1.79,4.24,2.69,8.47,5.41,12.69,8.14,1.65,1.07,1.66,2.55,0,3.62-4.21,2.74-8.43,5.48-12.7,8.14-.6.37-1.67.56-2.23.27-.54-.29-.96-1.29-.99-1.99-.11-2.78-.05-5.56-.05-8.34,0,0,0,0,0,0Z"/>
</svg>