<?xml version="1.0" encoding="UTF-8"?>
<svg id="a" data-name="Layer 7" xmlns="http://www.w3.org/2000/svg" viewBox="0 0 43.25 43.37">
  <defs>
    <style>
      .b {
        fill: #fff;
      }

      .b, .c {
        stroke-width: 0px;
      }

      .c {
        fill: #e9686a;
      }
    </style>
  </defs>
  <path class="c" d="m43.25,21.66c-.06,12.14-9.69,21.66-21.83,21.59C9.51,43.19-.04,33.4.02,21.32.08,9.51,9.9-.04,21.9.03c11.87.07,21.4,9.73,21.34,21.63Zm-2.05.08c0-10.89-8.65-19.65-19.44-19.67-10.87-.02-19.68,8.75-19.7,19.62-.02,10.65,8.82,19.5,19.5,19.53,10.84.03,19.63-8.69,19.63-19.48Z"/>
  <path class="b" d="m41.19,21.74c0,10.78-8.79,19.5-19.63,19.48-10.68-.03-19.52-8.88-19.5-19.53.02-10.87,8.82-19.64,19.7-19.62,10.79.02,19.44,8.78,19.44,19.67Zm-19.56,8.93c2.16,0,4.32.01,6.48,0,1.89-.01,2.61-.73,2.62-2.6.02-4.27.02-8.54,0-12.81,0-1.89-.74-2.68-2.58-2.69-4.32-.02-8.64-.02-12.95.01-1.95.02-2.57.67-2.57,2.63-.01,4.32,0,8.64,0,12.95,0,1.82.67,2.49,2.52,2.51,2.16.02,4.32,0,6.48,0Z"/>
  <path class="c" d="m21.64,30.67c-2.16,0-4.32.02-6.48,0-1.85-.02-2.52-.69-2.52-2.51,0-4.32-.01-8.64,0-12.95,0-1.95.62-2.61,2.57-2.63,4.32-.04,8.64-.04,12.95-.01,1.84.01,2.58.8,2.58,2.69.01,4.27,0,8.54,0,12.81,0,1.88-.73,2.59-2.62,2.6-2.16.02-4.32,0-6.48,0Z"/>
</svg>