<?xml version="1.0" encoding="UTF-8"?>
<svg id="a" data-name="Layer 8" xmlns="http://www.w3.org/2000/svg" viewBox="0 0 43.25 43.37">
  <defs>
    <style>
      .b {
        fill: #fff;
      }

      .b, .c {
        stroke-width: 0px;
      }

      .c {
        fill: #e9686a;
      }
    </style>
  </defs>
  <path class="c" d="m43.24,21.65c-.12,12.3-9.79,21.75-22.13,21.61C9.51,43.13-.1,33.2,0,21.45.11,9.48,9.89-.11,21.89,0c11.86.11,21.47,9.86,21.36,21.65Zm-30.4-.04c0,2.16-.02,4.32,0,6.48.02,1.59.71,2.37,2.24,2.39,4.37.05,8.73.05,13.1,0,1.52-.02,2.28-.85,2.29-2.37.02-4.32.02-8.64,0-12.95,0-1.58-.81-2.38-2.41-2.39-4.27-.03-8.54-.03-12.81,0-1.63,0-2.38.75-2.41,2.37-.04,2.16,0,4.32-.01,6.48Z"/>
  <path class="b" d="m12.85,21.61c0-2.16-.03-4.32.01-6.48.03-1.63.77-2.36,2.41-2.37,4.27-.02,8.54-.03,12.81,0,1.6.01,2.4.81,2.41,2.39.02,4.32.02,8.64,0,12.95,0,1.52-.77,2.35-2.29,2.37-4.37.05-8.73.05-13.1,0-1.53-.02-2.22-.8-2.24-2.39-.03-2.16,0-4.32,0-6.48Z"/>
</svg>